<svg width="29" height="20" viewBox="0 0 29 20" fill="none" xmlns="http://www.w3.org/2000/svg">
<g clip-path="url(#clip0_41_744)">
<path d="M20.5564 7.23868C21.3536 7.23868 21.9697 7.4645 22.4409 7.91615C22.9119 8.36774 23.1293 8.96991 23.1293 9.72262V13.3356H22.1147V12.5077H22.0784C21.6436 13.1851 21.0275 13.5239 20.3027 13.5239C19.6867 13.5239 19.1431 13.3356 18.7082 12.9593C18.3096 12.583 18.0559 12.0561 18.0559 11.4916C18.0559 10.8894 18.2734 10.4001 18.7082 10.0237C19.1431 9.64738 19.7592 9.49685 20.4839 9.49685C21.1362 9.49685 21.6436 9.6098 22.0422 9.87321V9.6098C22.0422 9.2585 21.9159 8.90727 21.6634 8.67838L21.6073 8.63127C21.3174 8.3678 20.955 8.21727 20.5564 8.21727C19.9404 8.21727 19.4693 8.48074 19.1431 9.00762L18.2009 8.40533C18.7807 7.61497 19.5417 7.23868 20.5564 7.23868ZM15.4468 4.6795C16.097 4.6795 16.715 4.9145 17.209 5.35274L17.295 5.43215C17.8023 5.8838 18.0559 6.56127 18.0559 7.27633C18.0559 7.99138 17.8023 8.63121 17.295 9.12044C16.7876 9.60974 16.1715 9.87315 15.4468 9.87315L13.7073 9.8355V13.3356H12.6201V4.67944L15.4468 4.6795ZM20.7013 10.4001C20.2665 10.4001 19.9041 10.513 19.6142 10.7388C19.3243 10.927 19.1793 11.1904 19.1793 11.5291C19.1793 11.8302 19.3243 12.0936 19.5417 12.2442C19.7954 12.4324 20.0853 12.5453 20.3752 12.5453C20.7811 12.5453 21.187 12.3813 21.5044 12.0841L21.5711 12.0184C21.9335 11.6797 22.1147 11.2657 22.1147 10.814C21.7885 10.5506 21.3174 10.4 20.7014 10.4L20.7013 10.4001ZM15.5193 5.73327H13.7073V8.74415H15.5193C15.9178 8.74415 16.3165 8.59362 16.5702 8.29256C17.15 7.72803 17.15 6.78715 16.6064 6.22256L16.5702 6.18491C16.2802 5.88386 15.9178 5.69568 15.5192 5.73333L15.5193 5.73327ZM29 7.42685L25.4124 15.9701H24.3252L25.666 12.9969L23.3105 7.4645H24.4702L26.1734 11.7173H26.2096L27.8766 7.4645H29V7.42685Z" fill="#5F6368"/>
<path d="M9.39482 9.08277C9.39482 8.74406 9.35857 8.40536 9.32232 8.06665H4.7926V9.98606H7.3655C7.25681 10.5882 6.93067 11.1527 6.42334 11.4915V12.7334H7.98158C8.88755 11.8678 9.39488 10.5882 9.39488 9.08283L9.39482 9.08277Z" fill="#4285F4"/>
<path d="M4.79262 13.9379C6.09717 13.9379 7.18433 13.4862 7.9816 12.7335L6.42336 11.4916C5.98847 11.7927 5.44489 11.9808 4.79262 11.9808C3.56046 11.9808 2.4733 11.1152 2.11091 9.91089H0.516479V11.1905C1.34995 12.8841 2.98069 13.9379 4.79262 13.9379Z" fill="#34A853"/>
<path d="M2.11087 9.91067C1.89348 9.30849 1.89348 8.63108 2.11087 7.99126V6.71167H0.516435C-0.172145 8.1042 -0.172145 9.76014 0.516435 11.1903L2.11087 9.91067Z" fill="#FBBC04"/>
<path d="M4.79256 5.95908C5.48108 5.95908 6.13336 6.22255 6.64074 6.71178L8.01779 5.28167C7.14802 4.45367 5.98841 3.96443 4.82875 4.00202C3.01682 4.00202 1.34989 5.05584 0.552612 6.74943L2.1471 8.02902C2.47324 6.82467 3.5604 5.95908 4.79256 5.95908Z" fill="#EA4335"/>
</g>
<defs>
<clipPath id="clip0_41_744">
<rect width="29" height="20" fill="white"/>
</clipPath>
</defs>
</svg>
