<svg width="26" height="20" viewBox="0 0 26 20" fill="none" xmlns="http://www.w3.org/2000/svg">
<g clip-path="url(#clip0_41_738)">
<path d="M4.72671 19.9558V18.6284C4.72671 18.1195 4.41451 17.7877 3.87937 17.7877C3.61186 17.7877 3.322 17.8762 3.12131 18.1638C2.96531 17.9204 2.74238 17.7877 2.40794 17.7877C2.18491 17.7877 1.96208 17.854 1.78363 18.0974V17.8319H1.31543V19.9558H1.78363V18.7832C1.78363 18.4072 1.98432 18.2301 2.29652 18.2301C2.60852 18.2301 2.76473 18.4293 2.76473 18.7832V19.9558H3.23293V18.7832C3.23293 18.4072 3.45576 18.2301 3.74562 18.2301C4.05782 18.2301 4.21382 18.4293 4.21382 18.7832V19.9558H4.72671ZM11.6605 17.8319H10.9025V17.1904H10.4343V17.8319H10.0107V18.2522H10.4342V19.2257C10.4342 19.7125 10.6349 20 11.17 20C11.3707 20 11.5936 19.9337 11.7498 19.8452L11.6159 19.4469C11.4821 19.5354 11.3261 19.5576 11.2146 19.5576C10.9917 19.5576 10.9025 19.4249 10.9025 19.2036V18.2522H11.6605V17.8319ZM15.6291 17.7876C15.3616 17.7876 15.1833 17.9204 15.0718 18.0974V17.8319H14.6036V19.9558H15.0718V18.7611C15.0718 18.4072 15.2278 18.208 15.5176 18.208C15.6068 18.208 15.7183 18.2302 15.8075 18.2523L15.9412 17.8099C15.8521 17.7877 15.7183 17.7877 15.6291 17.7877V17.7876ZM9.63167 18.0089C9.40864 17.854 9.09654 17.7877 8.76209 17.7877C8.22706 17.7877 7.87037 18.0531 7.87037 18.4735C7.87037 18.8275 8.13789 19.0266 8.60609 19.093L8.82902 19.1152C9.0743 19.1593 9.20805 19.2257 9.20805 19.3364C9.20805 19.4912 9.02971 19.6018 8.71751 19.6018C8.40541 19.6018 8.16013 19.4912 8.00403 19.3806L7.7811 19.7346C8.02637 19.9115 8.36082 20 8.69516 20C9.31947 20 9.67626 19.7125 9.67626 19.3142C9.67626 18.9381 9.3864 18.739 8.94044 18.6726L8.71751 18.6505C8.51682 18.6283 8.36082 18.5842 8.36082 18.4514C8.36082 18.2965 8.51682 18.208 8.76209 18.208C9.02971 18.208 9.29723 18.3186 9.43098 18.385L9.63167 18.0089ZM22.0726 17.7877C21.805 17.7877 21.6266 17.9204 21.5151 18.0974V17.8319H21.0469V19.9558H21.5151V18.7611C21.5151 18.4072 21.6712 18.208 21.961 18.208C22.0502 18.208 22.1617 18.2302 22.2509 18.2523L22.3847 17.8099C22.2955 17.7877 22.1617 17.7877 22.0726 17.7877ZM16.0973 18.8939C16.0973 19.5354 16.5432 20 17.2344 20C17.5465 20 17.7695 19.9337 17.9924 19.7567L17.7695 19.3806C17.5911 19.5134 17.4128 19.5797 17.2121 19.5797C16.8331 19.5797 16.5655 19.3142 16.5655 18.8939C16.5655 18.4957 16.8331 18.2301 17.2121 18.208C17.4128 18.208 17.5911 18.2744 17.7695 18.4072L17.9924 18.0311C17.7695 17.854 17.5465 17.7877 17.2344 17.7877C16.5432 17.7877 16.0973 18.2523 16.0973 18.8939ZM20.4227 18.8939V17.8319H19.9545V18.0974C19.7984 17.8983 19.5755 17.7877 19.2856 17.7877C18.6836 17.7877 18.2154 18.2523 18.2154 18.8939C18.2154 19.5354 18.6836 20 19.2856 20C19.5977 20 19.8207 19.8895 19.9545 19.6903V19.9558H20.4227V18.8939ZM18.7059 18.8939C18.7059 18.5177 18.9511 18.208 19.3524 18.208C19.7315 18.208 19.9991 18.4957 19.9991 18.8939C19.9991 19.27 19.7315 19.5797 19.3524 19.5797C18.9511 19.5575 18.7059 19.27 18.7059 18.8939ZM13.1098 17.7877C12.4855 17.7877 12.0395 18.2301 12.0395 18.8939C12.0395 19.5576 12.4854 20 13.132 20C13.4441 20 13.7563 19.9115 14.0016 19.7125L13.7786 19.3806C13.6002 19.5134 13.3773 19.6018 13.1544 19.6018C12.8645 19.6018 12.5746 19.4691 12.5077 19.0929H14.0908V18.916C14.1131 18.2301 13.7118 17.7877 13.1098 17.7877ZM13.1098 18.1859C13.3995 18.1859 13.6003 18.3629 13.6448 18.6948H12.5301C12.5746 18.4072 12.7753 18.1859 13.1098 18.1859ZM24.7257 18.8939V16.9912H24.2575V18.0974C24.1014 17.8983 23.8785 17.7877 23.5886 17.7877C22.9866 17.7877 22.5184 18.2523 22.5184 18.8939C22.5184 19.5354 22.9866 20 23.5886 20C23.9008 20 24.1237 19.8895 24.2575 19.6903V19.9558H24.7257V18.8939ZM23.009 18.8939C23.009 18.5177 23.2541 18.208 23.6555 18.208C24.0346 18.208 24.3021 18.4957 24.3021 18.8939C24.3021 19.27 24.0346 19.5797 23.6555 19.5797C23.2541 19.5575 23.009 19.27 23.009 18.8939ZM7.35748 18.8939V17.8319H6.88928V18.0974C6.73318 17.8983 6.51025 17.7877 6.22039 17.7877C5.61843 17.7877 5.15023 18.2523 5.15023 18.8939C5.15023 19.5354 5.61843 20 6.22039 20C6.53259 20 6.75552 19.8895 6.88928 19.6903V19.9558H7.35748V18.8939ZM5.61843 18.8939C5.61843 18.5177 5.8637 18.208 6.26498 18.208C6.64401 18.208 6.91162 18.4957 6.91162 18.8939C6.91162 19.27 6.64401 19.5797 6.26498 19.5797C5.8637 19.5575 5.61843 19.27 5.61843 18.8939Z" fill="#151618"/>
<path d="M9.47559 1.70361H16.4986V14.2258H9.47559V1.70361Z" fill="#FF5F00"/>
<path d="M9.92154 7.96463C9.92154 5.42041 11.1255 3.16372 12.9759 1.7035C11.616 0.641572 9.8993 0 8.02648 0C3.58952 0 0 3.5619 0 7.96463C0 12.3672 3.58952 15.9293 8.02638 15.9293C9.8992 15.9293 11.6159 15.2877 12.9759 14.2256C11.1255 12.7876 9.92154 10.5088 9.92154 7.96463Z" fill="#EB001B"/>
<path d="M25.9742 7.96463C25.9742 12.3672 22.3847 15.9293 17.9478 15.9293C16.075 15.9293 14.3583 15.2877 12.9983 14.2256C14.8711 12.7655 16.0528 10.5088 16.0528 7.96463C16.0528 5.42041 14.8488 3.16372 12.9983 1.7035C14.3582 0.641572 16.075 0 17.9478 0C22.3847 0 25.9742 3.58408 25.9742 7.96463Z" fill="#F79E1B"/>
</g>
<defs>
<clipPath id="clip0_41_738">
<rect width="25.9742" height="20" fill="white"/>
</clipPath>
</defs>
</svg>
