<svg width="10" height="20" viewBox="0 0 10 20" fill="none" xmlns="http://www.w3.org/2000/svg">
<g clip-path="url(#clip0_41_750)">
<path d="M8.48286 4.90163C7.93856 4.27056 6.95466 4 5.69594 4H2.04282C1.91828 4 1.79783 4.0452 1.70312 4.12746C1.60841 4.20972 1.54566 4.32365 1.52614 4.44877L0.0050459 14.262C-0.0251885 14.4555 0.122116 14.6308 0.314929 14.6308H2.57024L3.13665 10.9763L3.11907 11.0907C3.15942 10.8324 3.37661 10.6419 3.6338 10.6419H4.70551C6.81091 10.6419 8.45946 9.772 8.94102 7.25562C8.95532 7.18119 8.9677 7.10875 8.97841 7.03799C8.91762 7.00524 8.91762 7.00524 8.97841 7.03799C9.1218 6.10791 8.97743 5.47481 8.48286 4.90163Z" fill="#27346A"/>
<path d="M3.99962 6.70294C4.06127 6.67308 4.12871 6.6576 4.197 6.65764H7.06098C7.40012 6.65764 7.71645 6.68009 8.00551 6.72742C8.0864 6.74054 8.16687 6.7562 8.2468 6.77438C8.3601 6.79981 8.47208 6.83094 8.58235 6.86764C8.72446 6.91592 8.8568 6.97215 8.97844 7.03799C9.1218 6.10755 8.97743 5.47481 8.48286 4.90163C7.93825 4.27056 6.95466 4 5.69594 4H2.04251C1.78528 4 1.56645 4.19049 1.52614 4.44877L0.00504611 14.2617C-0.0251883 14.4555 0.122116 14.6305 0.314616 14.6305H2.57024L3.74536 7.05023C3.75691 6.97572 3.78609 6.90518 3.83038 6.84469C3.87467 6.78419 3.93275 6.73555 3.99962 6.70294Z" fill="#27346A"/>
<path d="M8.94124 7.25571C8.45968 9.77174 6.81117 10.642 4.70574 10.642H3.6337C3.37652 10.642 3.15929 10.8325 3.11933 11.0908L2.41468 15.6347C2.38835 15.8041 2.5171 15.9575 2.68554 15.9575H4.58671C4.69562 15.9575 4.80094 15.918 4.88374 15.846C4.96653 15.774 5.02137 15.6744 5.03839 15.565L5.05691 15.4664L5.41523 13.1564L5.43831 13.0287C5.45533 12.9193 5.51017 12.8196 5.59295 12.7477C5.67574 12.6757 5.78106 12.6362 5.88995 12.6361H6.17449C8.01617 12.6361 9.45824 11.875 9.87964 9.67387C10.0555 8.75401 9.96453 7.98601 9.49921 7.44656C9.35808 7.28317 9.18281 7.14823 8.97863 7.03809C8.96757 7.10921 8.95558 7.18129 8.94124 7.25571Z" fill="#2790C3"/>
<path d="M8.47467 6.8337C8.39958 6.8114 8.32378 6.79165 8.2474 6.7745C8.16743 6.75661 8.08696 6.74105 8.00611 6.72785C7.71674 6.68021 7.40064 6.65772 7.06119 6.65772H4.19756C4.12922 6.65756 4.06173 6.67317 4.00018 6.70337C3.93323 6.73588 3.87509 6.78449 3.83078 6.845C3.78647 6.90552 3.75733 6.97611 3.74588 7.05066L3.13721 10.9764L3.11963 11.0908C3.15967 10.8325 3.37686 10.642 3.63408 10.642H4.70611C6.8115 10.642 8.46002 9.77211 8.94158 7.25573C8.95592 7.18131 8.96795 7.10919 8.979 7.0381C8.85705 6.97262 8.72506 6.91603 8.58291 6.86807C8.54704 6.85598 8.51097 6.84452 8.47471 6.8337" fill="#1F264F"/>
</g>
<defs>
<clipPath id="clip0_41_750">
<rect width="9.96197" height="20" fill="white" transform="translate(0.00109863)"/>
</clipPath>
</defs>
</svg>
